<svg width="180" height="54" viewBox="0 0 180 54" fill="none" xmlns="http://www.w3.org/2000/svg">
<rect width="180" height="54" rx="10" fill="black"/>
<path d="M45.5 15.5C46.5 15.5 48 14.8 48.6 13.9C49.3 12.9 49.6 11.5 49.3 10C48 10 46.5 10.9 45.9 11.8C45.3 12.7 44.8 14.1 45.5 15.5ZM47.8 16.5C46.4 16.5 45.4 17.4 44.6 17.4C43.7 17.4 42.4 16.4 40.9 16.4C38.9 16.4 37 17.6 36 19.3C34.1 22.7 35.5 27.8 37.4 30.5C38.3 31.8 39.4 33.3 40.9 33.3C42.3 33.3 42.8 32.4 44.6 32.4C46.3 32.4 46.8 33.3 48.3 33.3C49.8 33.3 50.8 32 51.7 30.6C52.8 29 53.3 27.5 53.3 27.4C53.3 27.4 50.8 26.4 50.8 23.6C50.8 21.2 52.8 19.9 52.9 19.9C51.8 18.2 50.1 16.6 47.8 16.5Z" fill="white"/>
<text x="65" y="21" font-family="sans-serif" font-size="10" fill="white">Download on the</text>
<text x="65" y="36" font-family="sans-serif" font-size="16" font-weight="bold" fill="white">App Store</text>
</svg>
